<svg width="31" height="39" viewBox="0 0 31 39" fill="none" xmlns="http://www.w3.org/2000/svg">
<path id="Vector" d="M15.5 0C7.3625 0 0 6.23875 0 15.8875C0 22.0487 4.74688 29.295 14.2213 37.6456C14.9575 38.285 16.0619 38.285 16.7981 37.6456C26.2531 29.295 31 22.0487 31 15.8875C31 6.23875 23.6375 0 15.5 0ZM15.5 19.375C13.3687 19.375 11.625 17.6313 11.625 15.5C11.625 13.3687 13.3687 11.625 15.5 11.625C17.6313 11.625 19.375 13.3687 19.375 15.5C19.375 17.6313 17.6313 19.375 15.5 19.375Z" fill="#FAFAFA"/>
</svg>
