<svg width="35" height="35" viewBox="0 0 35 35" fill="none" xmlns="http://www.w3.org/2000/svg">
<path fill-rule="evenodd" clip-rule="evenodd" d="M17.5 35C7.83475 35 0 27.1652 0 17.5C0 7.83475 7.83475 0 17.5 0C27.1652 0 35 7.83475 35 17.5C35 27.1652 27.1652 35 17.5 35ZM16.1875 14V26.25H18.8125V14H16.1875ZM17.5 12.25C17.9641 12.25 18.4092 12.0656 18.7374 11.7374C19.0656 11.4092 19.25 10.9641 19.25 10.5C19.25 10.0359 19.0656 9.59075 18.7374 9.26256C18.4092 8.93437 17.9641 8.75 17.5 8.75C17.0359 8.75 16.5908 8.93437 16.2626 9.26256C15.9344 9.59075 15.75 10.0359 15.75 10.5C15.75 10.9641 15.9344 11.4092 16.2626 11.7374C16.5908 12.0656 17.0359 12.25 17.5 12.25Z" fill="#A3A2A2"/>
</svg>
