<svg width="200" height="66" viewBox="0 0 200 66" fill="none" xmlns="http://www.w3.org/2000/svg">
<mask id="path-1-outside-1_304_2042" maskUnits="userSpaceOnUse" x="3" y="3" width="192" height="54" fill="black">
<rect fill="white" x="3" y="3" width="192" height="54"/>
<path d="M18.896 18.6H39.216C41.0933 18.6 42.608 19.144 43.76 20.232C44.912 21.2987 45.488 22.7493 45.488 24.584C45.488 25.672 45.2213 26.6853 44.688 27.624C44.1547 28.5627 43.4187 29.3093 42.48 29.864C41.5413 30.4187 40.4747 30.696 39.28 30.696L29.52 30.728V41H18.896V18.6ZM30.64 28.872C31.408 28.872 32.112 28.6907 32.752 28.328C33.4133 27.944 33.9253 27.432 34.288 26.792C34.672 26.1307 34.864 25.4267 34.864 24.68C34.864 23.912 34.672 23.208 34.288 22.568C33.9253 21.9067 33.4133 21.384 32.752 21C32.112 20.616 31.408 20.424 30.64 20.424H29.52V28.872H30.64ZM61.5908 41.16C58.7321 41.16 56.1508 40.7227 53.8468 39.848C51.5428 38.9733 49.7188 37.6827 48.3748 35.976C47.0521 34.248 46.3908 32.1787 46.3908 29.768C46.3908 27.3787 47.0628 25.3307 48.4068 23.624C49.7508 21.9173 51.5641 20.6267 53.8468 19.752C56.1508 18.856 58.7321 18.408 61.5908 18.408C64.4281 18.408 66.9881 18.856 69.2708 19.752C71.5748 20.6267 73.3881 21.9173 74.7108 23.624C76.0548 25.3307 76.7268 27.3787 76.7268 29.768C76.7268 32.1787 76.0548 34.248 74.7108 35.976C73.3881 37.6827 71.5748 38.9733 69.2708 39.848C66.9881 40.7227 64.4281 41.16 61.5908 41.16ZM61.5908 39.272C62.4868 39.272 63.1481 38.8667 63.5748 38.056C63.9374 37.4373 64.1828 36.3387 64.3108 34.76C64.3748 33.928 64.4068 32.264 64.4068 29.768C64.4068 27.2507 64.3534 25.4693 64.2468 24.424C64.1828 23.144 63.9481 22.1733 63.5428 21.512C63.1161 20.7013 62.4654 20.296 61.5908 20.296C60.6948 20.296 60.0228 20.7013 59.5748 21.512C59.2121 22.152 58.9774 23.1227 58.8708 24.424C58.7854 25.5333 58.7428 27.3147 58.7428 29.768C58.7428 32.5413 58.7748 34.2053 58.8388 34.76C58.9241 36.232 59.1588 37.3307 59.5428 38.056C59.9908 38.8667 60.6734 39.272 61.5908 39.272ZM95.1983 26.632C97.7369 27.3147 99.6356 28.2213 100.894 29.352C102.153 30.4613 102.782 31.912 102.782 33.704C102.782 35.1333 102.334 36.4133 101.438 37.544C100.542 38.6747 99.2196 39.56 97.4703 40.2C95.7423 40.84 93.6409 41.16 91.1663 41.16C88.2436 41.16 85.6623 40.7867 83.4223 40.04C81.2036 39.272 79.4649 38.344 78.2063 37.256L79.2623 35.816C80.3716 36.6907 81.7689 37.4373 83.4543 38.056C85.1396 38.6747 86.9529 38.984 88.8943 38.984C90.1529 38.984 91.1023 38.8027 91.7423 38.44C92.4036 38.0773 92.7343 37.5653 92.7343 36.904C92.7343 35.752 91.5929 34.856 89.3103 34.216L85.1503 33C82.8889 32.3173 81.1396 31.368 79.9023 30.152C78.6863 28.936 78.0783 27.496 78.0783 25.832C78.0783 24.4453 78.5156 23.1867 79.3903 22.056C80.2649 20.9253 81.5343 20.04 83.1983 19.4C84.8836 18.7387 86.8996 18.408 89.2463 18.408C91.4863 18.408 93.5449 18.664 95.4223 19.176C97.3209 19.688 98.8676 20.3067 100.062 21.032L99.0063 22.504C98.0036 21.928 96.7983 21.4373 95.3903 21.032C94.0036 20.6267 92.5423 20.424 91.0063 20.424C89.6623 20.424 88.6276 20.6373 87.9023 21.064C87.1983 21.4693 86.8463 22.0347 86.8463 22.76C86.8463 23.3147 87.1129 23.8053 87.6463 24.232C88.1796 24.6373 89.1929 25.0427 90.6863 25.448L95.1983 26.632ZM109.651 20.488H101.235V18.6H129.299V20.488H120.851V41H109.651V20.488ZM123.027 26.344H137.587V33.16H123.027V26.344ZM139.615 18.6H150.047V41H139.615V18.6ZM160.057 20.488H151.641V18.6H179.705V20.488H171.257V41H160.057V20.488Z"/>
</mask>
<path d="M18.896 18.6H39.216C41.0933 18.6 42.608 19.144 43.76 20.232C44.912 21.2987 45.488 22.7493 45.488 24.584C45.488 25.672 45.2213 26.6853 44.688 27.624C44.1547 28.5627 43.4187 29.3093 42.48 29.864C41.5413 30.4187 40.4747 30.696 39.28 30.696L29.52 30.728V41H18.896V18.6ZM30.64 28.872C31.408 28.872 32.112 28.6907 32.752 28.328C33.4133 27.944 33.9253 27.432 34.288 26.792C34.672 26.1307 34.864 25.4267 34.864 24.68C34.864 23.912 34.672 23.208 34.288 22.568C33.9253 21.9067 33.4133 21.384 32.752 21C32.112 20.616 31.408 20.424 30.64 20.424H29.52V28.872H30.64ZM61.5908 41.16C58.7321 41.16 56.1508 40.7227 53.8468 39.848C51.5428 38.9733 49.7188 37.6827 48.3748 35.976C47.0521 34.248 46.3908 32.1787 46.3908 29.768C46.3908 27.3787 47.0628 25.3307 48.4068 23.624C49.7508 21.9173 51.5641 20.6267 53.8468 19.752C56.1508 18.856 58.7321 18.408 61.5908 18.408C64.4281 18.408 66.9881 18.856 69.2708 19.752C71.5748 20.6267 73.3881 21.9173 74.7108 23.624C76.0548 25.3307 76.7268 27.3787 76.7268 29.768C76.7268 32.1787 76.0548 34.248 74.7108 35.976C73.3881 37.6827 71.5748 38.9733 69.2708 39.848C66.9881 40.7227 64.4281 41.16 61.5908 41.16ZM61.5908 39.272C62.4868 39.272 63.1481 38.8667 63.5748 38.056C63.9374 37.4373 64.1828 36.3387 64.3108 34.76C64.3748 33.928 64.4068 32.264 64.4068 29.768C64.4068 27.2507 64.3534 25.4693 64.2468 24.424C64.1828 23.144 63.9481 22.1733 63.5428 21.512C63.1161 20.7013 62.4654 20.296 61.5908 20.296C60.6948 20.296 60.0228 20.7013 59.5748 21.512C59.2121 22.152 58.9774 23.1227 58.8708 24.424C58.7854 25.5333 58.7428 27.3147 58.7428 29.768C58.7428 32.5413 58.7748 34.2053 58.8388 34.76C58.9241 36.232 59.1588 37.3307 59.5428 38.056C59.9908 38.8667 60.6734 39.272 61.5908 39.272ZM95.1983 26.632C97.7369 27.3147 99.6356 28.2213 100.894 29.352C102.153 30.4613 102.782 31.912 102.782 33.704C102.782 35.1333 102.334 36.4133 101.438 37.544C100.542 38.6747 99.2196 39.56 97.4703 40.2C95.7423 40.84 93.6409 41.16 91.1663 41.16C88.2436 41.16 85.6623 40.7867 83.4223 40.04C81.2036 39.272 79.4649 38.344 78.2063 37.256L79.2623 35.816C80.3716 36.6907 81.7689 37.4373 83.4543 38.056C85.1396 38.6747 86.9529 38.984 88.8943 38.984C90.1529 38.984 91.1023 38.8027 91.7423 38.44C92.4036 38.0773 92.7343 37.5653 92.7343 36.904C92.7343 35.752 91.5929 34.856 89.3103 34.216L85.1503 33C82.8889 32.3173 81.1396 31.368 79.9023 30.152C78.6863 28.936 78.0783 27.496 78.0783 25.832C78.0783 24.4453 78.5156 23.1867 79.3903 22.056C80.2649 20.9253 81.5343 20.04 83.1983 19.4C84.8836 18.7387 86.8996 18.408 89.2463 18.408C91.4863 18.408 93.5449 18.664 95.4223 19.176C97.3209 19.688 98.8676 20.3067 100.062 21.032L99.0063 22.504C98.0036 21.928 96.7983 21.4373 95.3903 21.032C94.0036 20.6267 92.5423 20.424 91.0063 20.424C89.6623 20.424 88.6276 20.6373 87.9023 21.064C87.1983 21.4693 86.8463 22.0347 86.8463 22.76C86.8463 23.3147 87.1129 23.8053 87.6463 24.232C88.1796 24.6373 89.1929 25.0427 90.6863 25.448L95.1983 26.632ZM109.651 20.488H101.235V18.6H129.299V20.488H120.851V41H109.651V20.488ZM123.027 26.344H137.587V33.16H123.027V26.344ZM139.615 18.6H150.047V41H139.615V18.6ZM160.057 20.488H151.641V18.6H179.705V20.488H171.257V41H160.057V20.488Z" fill="#FAFAFA"/>
<path d="M18.896 18.6V3.6C10.6117 3.6 3.896 10.3157 3.896 18.6H18.896ZM43.76 20.232L33.4607 31.1372C33.4966 31.1711 33.5326 31.2048 33.5689 31.2384L43.76 20.232ZM44.688 27.624L57.7298 35.0341L57.7299 35.0341L44.688 27.624ZM42.48 29.864L50.1109 42.7779L50.1109 42.7779L42.48 29.864ZM39.28 30.696V15.696C39.2636 15.696 39.2472 15.696 39.2308 15.6961L39.28 30.696ZM29.52 30.728L29.4708 15.7281C21.2058 15.7552 14.52 22.4629 14.52 30.728H29.52ZM29.52 41V56C37.8043 56 44.52 49.2843 44.52 41H29.52ZM18.896 41H3.896C3.896 49.2843 10.6117 56 18.896 56V41ZM32.752 28.328L40.1472 41.3783C40.1929 41.3524 40.2386 41.3262 40.284 41.2998L32.752 28.328ZM34.288 26.792L21.3162 19.26C21.2898 19.3054 21.2636 19.3511 21.2377 19.3968L34.288 26.792ZM34.288 22.568L21.1358 29.7805C21.2291 29.9507 21.3257 30.119 21.4256 30.2854L34.288 22.568ZM32.752 21L25.0346 33.8624C25.0961 33.8993 25.1579 33.9358 25.22 33.9718L32.752 21ZM29.52 20.424V5.424C21.2357 5.424 14.52 12.1397 14.52 20.424H29.52ZM29.52 28.872H14.52C14.52 37.1563 21.2357 43.872 29.52 43.872V28.872ZM18.896 33.6H39.216V3.6H18.896V33.6ZM39.216 33.6C38.7084 33.6 37.8048 33.5256 36.6898 33.1251C35.5327 32.7095 34.4118 32.0355 33.4607 31.1372L54.0594 9.3268C49.6193 5.13344 44.1695 3.6 39.216 3.6V33.6ZM33.5689 31.2384C32.5122 30.26 31.6579 29.0234 31.1148 27.6555C30.592 26.339 30.488 25.2354 30.488 24.584H60.488C60.488 19.3406 58.6916 13.6149 53.9511 9.22559L33.5689 31.2384ZM30.488 24.584C30.488 23.0953 30.8856 21.5524 31.6462 20.2139L57.7299 35.0341C59.557 31.8183 60.488 28.2487 60.488 24.584H30.488ZM31.6462 20.2139C32.4189 18.8538 33.5583 17.7128 34.8491 16.9501L50.1109 42.7779C53.279 40.9059 55.8904 38.2715 57.7298 35.0341L31.6462 20.2139ZM34.8491 16.9501C36.4393 16.0104 38.055 15.696 39.28 15.696V45.696C42.8944 45.696 46.6433 44.8269 50.1109 42.7779L34.8491 16.9501ZM39.2308 15.6961L29.4708 15.7281L29.5692 45.7279L39.3292 45.6959L39.2308 15.6961ZM14.52 30.728V41H44.52V30.728H14.52ZM29.52 26H18.896V56H29.52V26ZM33.896 41V18.6H3.896V41H33.896ZM30.64 43.872C33.8814 43.872 37.1509 43.0762 40.1472 41.3783L25.3568 15.2777C27.0731 14.3051 28.9346 13.872 30.64 13.872V43.872ZM40.284 41.2998C43.1518 39.6347 45.6103 37.2366 47.3383 34.1872L21.2377 19.3968C22.2403 17.6274 23.6749 16.2533 25.22 15.3562L40.284 41.2998ZM47.2598 34.324C48.9386 31.4328 49.864 28.1385 49.864 24.68H19.864C19.864 22.7148 20.4054 20.8285 21.3162 19.26L47.2598 34.324ZM49.864 24.68C49.864 21.2761 48.9751 17.8917 47.1504 14.8506L21.4256 30.2854C20.3689 28.5243 19.864 26.5479 19.864 24.68H49.864ZM47.4402 15.3555C45.7446 12.2635 43.2737 9.76411 40.284 8.02816L25.22 33.9718C23.5529 33.0039 22.1061 31.5499 21.1358 29.7805L47.4402 15.3555ZM40.4694 8.13761C37.4283 6.31291 34.0439 5.424 30.64 5.424V35.424C28.7721 35.424 26.7957 34.9191 25.0346 33.8624L40.4694 8.13761ZM30.64 5.424H29.52V35.424H30.64V5.424ZM14.52 20.424V28.872H44.52V20.424H14.52ZM29.52 43.872H30.64V13.872H29.52V43.872ZM53.8467 39.848L48.523 53.8715H48.523L53.8467 39.848ZM48.3748 35.976L36.4636 45.0932C36.5054 45.1479 36.5476 45.2022 36.5902 45.2563L48.3748 35.976ZM48.4067 23.624L36.6222 14.3437V14.3437L48.4067 23.624ZM53.8467 19.752L59.2139 33.7589C59.2371 33.75 59.2603 33.7411 59.2834 33.7321L53.8467 19.752ZM69.2708 19.752L63.79 33.7149C63.8422 33.7354 63.8946 33.7556 63.947 33.7755L69.2708 19.752ZM74.7108 23.624L62.8545 32.8126C62.8783 32.8433 62.9022 32.8738 62.9262 32.9043L74.7108 23.624ZM74.7108 35.976L62.8705 26.7669C62.8651 26.7737 62.8598 26.7806 62.8545 26.7874L74.7108 35.976ZM69.2708 39.848L63.947 25.8245C63.9325 25.83 63.9181 25.8355 63.9036 25.8411L69.2708 39.848ZM63.5748 38.056L50.6343 30.4702C50.5186 30.6675 50.4075 30.8674 50.301 31.0698L63.5748 38.056ZM64.3108 34.76L79.2617 35.9722C79.2634 35.9516 79.265 35.9311 79.2666 35.9105L64.3108 34.76ZM64.2467 24.424L49.2655 25.1731C49.2784 25.4314 49.298 25.6894 49.3242 25.9467L64.2467 24.424ZM63.5428 21.512L50.269 28.4982C50.4212 28.7875 50.5829 29.0717 50.7537 29.3504L63.5428 21.512ZM59.5748 21.512L72.6251 28.9072C72.6514 28.8607 72.6775 28.8141 72.7034 28.7673L59.5748 21.512ZM58.8708 24.424L43.9209 23.1986C43.9188 23.2236 43.9169 23.2486 43.9149 23.2736L58.8708 24.424ZM58.8388 34.76L73.8136 33.8919C73.7971 33.6075 73.7725 33.3236 73.7399 33.0406L58.8388 34.76ZM59.5428 38.056L46.2859 45.0743C46.328 45.1537 46.3707 45.2327 46.4141 45.3113L59.5428 38.056ZM61.5908 26.16C60.2648 26.16 59.5251 25.9592 59.1705 25.8245L48.523 53.8715C52.7764 55.4862 57.1994 56.16 61.5908 56.16V26.16ZM59.1705 25.8245C59.0825 25.7911 59.1932 25.8224 59.4151 25.9794C59.6463 26.143 59.9137 26.3839 60.1593 26.6957L36.5902 45.2563C39.8349 49.3766 44.0246 52.1637 48.523 53.8715L59.1705 25.8245ZM60.2859 26.8588C60.6708 27.3615 60.9797 27.9512 61.1748 28.5617C61.3646 29.1554 61.3908 29.5919 61.3908 29.768H31.3907C31.3907 35.0994 32.921 40.465 36.4636 45.0932L60.2859 26.8588ZM61.3908 29.768C61.3908 29.991 61.357 30.4769 61.1471 31.1166C60.9317 31.773 60.5961 32.3903 60.1913 32.9043L36.6222 14.3437C32.9846 18.9628 31.3907 24.3691 31.3907 29.768H61.3908ZM60.1913 32.9043C59.958 33.2005 59.7009 33.4343 59.4729 33.5966C59.2536 33.7527 59.1392 33.7876 59.2139 33.7589L48.4796 5.74508C43.9947 7.46361 39.8423 10.2547 36.6222 14.3437L60.1913 32.9043ZM59.2834 33.7321C59.6055 33.6068 60.305 33.408 61.5908 33.408V3.408C57.1591 3.408 52.696 4.10516 48.4101 5.77193L59.2834 33.7321ZM61.5908 33.408C62.843 33.408 63.5049 33.6029 63.79 33.7149L74.7515 5.78914C70.4713 4.10907 66.0132 3.408 61.5908 3.408V33.408ZM63.947 33.7755C64.0284 33.8064 63.9019 33.7683 63.6606 33.5966C63.4091 33.4176 63.1194 33.1544 62.8545 32.8126L86.567 14.4354C83.3246 10.2517 79.1067 7.44149 74.5945 5.72852L63.947 33.7755ZM62.9262 32.9043C62.5214 32.3903 62.1858 31.773 61.9704 31.1166C61.7605 30.4769 61.7268 29.991 61.7268 29.768H91.7268C91.7268 24.3691 90.1329 18.9628 86.4953 14.3437L62.9262 32.9043ZM61.7268 29.768C61.7268 29.5685 61.7568 29.1089 61.9562 28.495C62.1608 27.8648 62.4812 27.2674 62.8705 26.7669L86.551 45.1851C90.1522 40.555 91.7268 35.1565 91.7268 29.768H61.7268ZM62.8545 26.7874C63.1194 26.4456 63.4091 26.1824 63.6606 26.0034C63.9019 25.8317 64.0284 25.7936 63.947 25.8245L74.5945 53.8715C79.1067 52.1585 83.3246 49.3483 86.567 45.1646L62.8545 26.7874ZM63.9036 25.8411C63.5858 25.9628 62.8836 26.16 61.5908 26.16V56.16C65.9725 56.16 70.3903 55.4825 74.6379 53.8549L63.9036 25.8411ZM61.5908 54.272C64.3684 54.272 67.5609 53.618 70.5972 51.757C73.6152 49.9072 75.6079 47.3995 76.8485 45.0422L50.301 31.0698C51.115 29.5232 52.5636 27.6234 54.9203 26.179C57.2953 24.7234 59.7091 24.272 61.5908 24.272V54.272ZM76.5152 45.6418C78.7413 41.8444 79.1203 37.7163 79.2617 35.9722L49.3598 33.5478C49.3313 33.8998 49.3157 33.8377 49.3913 33.499C49.4321 33.3162 49.5192 32.9636 49.6848 32.4959C49.8454 32.0421 50.136 31.3203 50.6343 30.4702L76.5152 45.6418ZM79.2666 35.9105C79.3821 34.4087 79.4068 32.1689 79.4068 29.768H49.4068C49.4068 30.9621 49.399 31.8983 49.3855 32.5996C49.3708 33.3668 49.3526 33.6394 49.3549 33.6095L79.2666 35.9105ZM79.4068 29.768C79.4068 27.2469 79.3613 24.7836 79.1693 22.9013L49.3242 25.9467C49.3217 25.9219 49.3294 25.9941 49.3407 26.1937C49.3516 26.3855 49.3632 26.6483 49.3735 26.9929C49.3943 27.6872 49.4068 28.6034 49.4068 29.768H79.4068ZM79.228 23.6749C79.1111 21.3359 78.6429 17.4444 76.3318 13.6736L50.7537 29.3504C49.9415 28.0252 49.5934 26.8839 49.4428 26.2608C49.2884 25.6221 49.2678 25.2206 49.2655 25.1731L79.228 23.6749ZM76.8165 14.5258C75.6062 12.2261 73.6548 9.73021 70.666 7.86831C67.6393 5.98287 64.4273 5.296 61.5908 5.296V35.296C59.6289 35.296 57.1795 34.8118 54.8035 33.3317C52.4654 31.8751 51.0527 29.9872 50.269 28.4982L76.8165 14.5258ZM61.5908 5.296C58.807 5.296 55.6579 5.95181 52.6674 7.75563C49.7024 9.54399 47.7119 11.9662 46.4461 14.2567L72.7034 28.7673C71.8856 30.2471 70.4551 32.0613 68.1621 33.4444C65.8436 34.8429 63.4785 35.296 61.5908 35.296V5.296ZM46.5244 14.1168C44.5546 17.5929 44.0883 21.1558 43.9209 23.1986L73.8206 25.6494C73.8286 25.5524 73.8177 25.7856 73.7067 26.2448C73.6049 26.6659 73.3264 27.6695 72.6251 28.9072L46.5244 14.1168ZM43.9149 23.2736C43.7822 24.9996 43.7428 27.2741 43.7428 29.768H73.7428C73.7428 27.3553 73.7887 26.067 73.8266 25.5744L43.9149 23.2736ZM43.7428 29.768C43.7428 32.0963 43.7492 34.8463 43.9376 36.4794L73.7399 33.0406C73.7876 33.4545 73.7912 33.6832 73.7827 33.4876C73.7778 33.3733 73.7707 33.1563 73.764 32.8076C73.7506 32.1138 73.7428 31.1126 73.7428 29.768H43.7428ZM43.8639 35.6281C43.99 37.8041 44.3857 41.485 46.2859 45.0743L72.7996 31.0377C73.4441 32.2551 73.6745 33.2111 73.7479 33.5548C73.8302 33.9404 73.8249 34.0869 73.8136 33.8919L43.8639 35.6281ZM46.4141 45.3113C47.7105 47.6571 49.7411 50.0896 52.7327 51.8658C55.7317 53.6465 58.8621 54.272 61.5908 54.272V24.272C63.402 24.272 65.7325 24.6948 68.0488 26.0702C70.3577 27.4411 71.823 29.2656 72.6714 30.8007L46.4141 45.3113ZM95.1982 26.632L99.0935 12.1466C99.0642 12.1387 99.0349 12.1309 99.0055 12.1232L95.1982 26.632ZM100.894 29.352L90.8702 40.5108C90.9054 40.5424 90.9408 40.5739 90.9762 40.6051L100.894 29.352ZM101.438 37.544L113.194 46.8602V46.8602L101.438 37.544ZM97.4703 40.2L92.3165 26.1132C92.2979 26.12 92.2792 26.1269 92.2605 26.1338L97.4703 40.2ZM83.4222 40.04L78.5156 54.2148C78.5699 54.2336 78.6243 54.2521 78.6788 54.2702L83.4222 40.04ZM78.2062 37.256L66.1102 28.3855C61.4862 34.6909 62.4815 43.4907 68.3969 48.604L78.2062 37.256ZM79.2622 35.816L88.5496 24.037C85.3542 21.5176 81.2725 20.4044 77.2406 20.9529C73.2086 21.5013 69.5725 23.6642 67.1662 26.9455L79.2622 35.816ZM83.4543 38.056L88.6233 23.9748V23.9748L83.4543 38.056ZM91.7422 38.44L84.5298 25.2878C84.4686 25.3213 84.4077 25.3553 84.3471 25.3897L91.7422 38.44ZM89.3102 34.216L85.1017 48.6135C85.1547 48.629 85.2077 48.6442 85.2608 48.6591L89.3102 34.216ZM85.1503 33L80.8152 47.3599C80.8573 47.3726 80.8995 47.3852 80.9417 47.3975L85.1503 33ZM79.9022 30.152L69.2956 40.7586C69.3264 40.7893 69.3573 40.82 69.3883 40.8504L79.9022 30.152ZM79.3903 22.056L91.2546 31.2341V31.2341L79.3903 22.056ZM83.1982 19.4L88.5829 33.4002C88.6145 33.388 88.6461 33.3758 88.6776 33.3634L83.1982 19.4ZM95.4222 19.176L91.4755 33.6475C91.4893 33.6512 91.503 33.6549 91.5168 33.6587L95.4222 19.176ZM100.062 21.032L112.25 29.7756C114.686 26.381 115.595 22.1245 114.759 18.0311C113.923 13.9377 111.418 10.3784 107.847 8.21019L100.062 21.032ZM99.0062 22.504L91.5344 35.5106C98.2106 39.3458 106.706 37.5037 111.194 31.2476L99.0062 22.504ZM95.3903 21.032L91.1817 35.4295C91.2014 35.4352 91.221 35.4409 91.2406 35.4466L95.3903 21.032ZM87.9023 21.064L95.3867 34.0633C95.4271 34.0401 95.4674 34.0166 95.5075 33.993L87.9023 21.064ZM87.6462 24.232L78.2758 35.945C78.3729 36.0227 78.471 36.0992 78.57 36.1744L87.6462 24.232ZM90.6862 25.448L86.757 39.9242C86.7976 39.9352 86.8383 39.9461 86.879 39.9568L90.6862 25.448ZM91.303 41.1174C91.8971 41.2772 92.1126 41.3838 92.0625 41.3599C92.0287 41.3437 91.8978 41.2791 91.6974 41.1498C91.4964 41.0202 91.2072 40.8135 90.8702 40.5108L110.918 18.1932C107.2 14.8535 102.769 13.135 99.0935 12.1466L91.303 41.1174ZM90.9762 40.6051C90.055 39.7932 89.165 38.6608 88.5494 37.2418C87.9446 35.8477 87.7822 34.5887 87.7822 33.704H117.782C117.782 27.937 115.543 22.268 110.812 18.0989L90.9762 40.6051ZM87.7822 33.704C87.7822 32.8231 87.9254 31.8178 88.2884 30.7807C88.6507 29.7454 89.1587 28.8882 89.6821 28.2278L113.194 46.8602C116.17 43.1055 117.782 38.5497 117.782 33.704H87.7822ZM89.6821 28.2278C90.9378 26.6432 92.2108 26.1518 92.3165 26.1132L102.624 54.2868C106.228 52.9682 110.147 50.7062 113.194 46.8602L89.6821 28.2278ZM92.2605 26.1338C92.4843 26.0509 92.5334 26.0615 92.34 26.091C92.1463 26.1205 91.7672 26.16 91.1663 26.16V56.16C94.8472 56.16 98.8213 55.6954 102.68 54.2662L92.2605 26.1338ZM91.1663 26.16C89.4879 26.16 88.5623 25.942 88.1657 25.8097L78.6788 54.2702C82.7622 55.6314 86.9993 56.16 91.1663 56.16V26.16ZM88.3289 25.8652C88.0828 25.78 87.8944 25.7057 87.757 25.6468C87.6194 25.5878 87.5427 25.5485 87.5173 25.535C87.4917 25.5213 87.5278 25.5389 87.6118 25.5954C87.696 25.652 87.8367 25.7534 88.0156 25.908L68.3969 48.604C71.5571 51.3357 75.182 53.0608 78.5156 54.2148L88.3289 25.8652ZM90.3023 46.1265L91.3583 44.6865L67.1662 26.9455L66.1102 28.3855L90.3023 46.1265ZM69.9749 47.595C72.611 49.6735 75.4968 51.1136 78.2852 52.1372L88.6233 23.9748C88.4881 23.9251 88.3878 23.8836 88.3187 23.853C88.2496 23.8224 88.2155 23.8044 88.2116 23.8023C88.2011 23.7967 88.3314 23.8649 88.5496 24.037L69.9749 47.595ZM78.2852 52.1372C81.756 53.4113 85.3331 53.984 88.8942 53.984V23.984C88.7225 23.984 88.6295 23.9705 88.6006 23.9656C88.5736 23.961 88.5862 23.9612 88.6233 23.9748L78.2852 52.1372ZM88.8942 53.984C91.1314 53.984 95.1635 53.7422 99.1374 51.4903L84.3471 25.3897C85.8195 24.5553 87.0774 24.2402 87.736 24.1144C88.418 23.9841 88.8452 23.984 88.8942 23.984V53.984ZM98.9547 51.5922C103.601 49.0442 107.734 43.9154 107.734 36.904H77.7343C77.7343 34.6035 78.3515 32.0217 79.8857 29.6461C81.3567 27.3685 83.1874 26.024 84.5298 25.2878L98.9547 51.5922ZM107.734 36.904C107.734 30.5537 104.302 26.0511 101.141 23.5694C98.3488 21.3777 95.3451 20.3296 93.3597 19.7729L85.2608 48.6591C85.5581 48.7424 84.2663 48.4623 82.6158 47.1666C80.5959 45.5809 77.7343 42.1023 77.7343 36.904H107.734ZM93.5188 19.8185L89.3588 18.6025L80.9417 47.3975L85.1017 48.6135L93.5188 19.8185ZM89.4853 18.6401C89.1566 18.5408 89.1262 18.4996 89.2969 18.5922C89.4753 18.6891 89.9023 18.9486 90.4162 19.4536L69.3883 40.8504C72.8702 44.2723 77.029 46.2169 80.8152 47.3599L89.4853 18.6401ZM90.5089 19.5454C91.1319 20.1685 91.8321 21.0916 92.353 22.3254C92.8781 23.569 93.0782 24.7909 93.0782 25.832H63.0783C63.0783 31.6206 65.3718 36.8348 69.2956 40.7586L90.5089 19.5454ZM93.0782 25.832C93.0782 26.7457 92.9289 27.7536 92.5753 28.7712C92.2236 29.7835 91.7383 30.6088 91.2546 31.2341L67.5259 12.8779C64.6862 16.5488 63.0783 21.0142 63.0783 25.832H93.0782ZM91.2546 31.2341C90.0818 32.7501 88.8506 33.2972 88.5829 33.4002L77.8136 5.39981C74.2179 6.78276 70.448 9.10057 67.5259 12.8779L91.2546 31.2341ZM88.6776 33.3634C88.4193 33.4648 88.3072 33.4738 88.4021 33.4582C88.4998 33.4422 88.7692 33.408 89.2462 33.408V3.408C85.553 3.408 81.5823 3.92058 77.7189 5.43658L88.6776 33.3634ZM89.2462 33.408C90.3495 33.408 91.0611 33.5345 91.4755 33.6475L99.369 4.70454C96.0287 3.79355 92.623 3.408 89.2462 3.408V33.408ZM91.5168 33.6587C91.9984 33.7885 92.2924 33.894 92.4354 33.9511C92.5825 34.01 92.5053 33.9921 92.2776 33.8538L107.847 8.21019C105.064 6.5207 102.083 5.43639 99.3277 4.69333L91.5168 33.6587ZM87.8742 12.2884L86.8182 13.7604L111.194 31.2476L112.25 29.7756L87.8742 12.2884ZM106.478 9.49742C104.194 8.18533 101.815 7.27246 99.5399 6.61741L91.2406 35.4466C91.4962 35.5202 91.6411 35.5752 91.6947 35.597C91.7489 35.619 91.6851 35.5972 91.5344 35.5106L106.478 9.49742ZM99.5988 6.63448C96.7612 5.80505 93.8766 5.424 91.0062 5.424V35.424C91.1131 35.424 91.1731 35.4309 91.1937 35.4338C91.2135 35.4365 91.2069 35.4369 91.1817 35.4295L99.5988 6.63448ZM91.0062 5.424C88.4318 5.424 84.3156 5.77107 80.297 8.13498L95.5075 33.993C94.1426 34.7959 92.9522 35.1305 92.2513 35.275C91.5458 35.4204 91.0914 35.424 91.0062 35.424V5.424ZM80.4178 8.06466C75.7372 10.7595 71.8463 15.9352 71.8463 22.76H101.846C101.846 24.9408 101.28 27.4131 99.8437 29.7204C98.457 31.9475 96.7095 33.3017 95.3867 34.0633L80.4178 8.06466ZM71.8463 22.76C71.8463 28.9187 75.0914 33.3975 78.2758 35.945L97.0167 12.519C97.9713 13.2827 99.2177 14.5267 100.226 16.3813C101.279 18.3186 101.846 20.5175 101.846 22.76H71.8463ZM78.57 36.1744C81.6407 38.5082 85.2113 39.5047 86.757 39.9242L94.6155 10.9718C94.2164 10.8634 94.1779 10.8332 94.3771 10.9128C94.487 10.9568 94.7449 11.0643 95.0998 11.2503C95.4379 11.4275 96.0256 11.7599 96.7225 12.2896L78.57 36.1744ZM86.879 39.9568L91.391 41.1408L99.0055 12.1232L94.4935 10.9392L86.879 39.9568ZM109.65 20.488H124.65C124.65 12.2037 117.935 5.488 109.65 5.488V20.488ZM101.234 20.488H86.2345C86.2345 28.7723 92.9502 35.488 101.234 35.488V20.488ZM101.234 18.6V3.6C92.9502 3.6 86.2345 10.3157 86.2345 18.6H101.234ZM129.299 18.6H144.299C144.299 10.3157 137.583 3.6 129.299 3.6V18.6ZM129.299 20.488V35.488C137.583 35.488 144.299 28.7723 144.299 20.488H129.299ZM120.851 20.488V5.488C112.566 5.488 105.851 12.2037 105.851 20.488H120.851ZM120.851 41V56C129.135 56 135.851 49.2843 135.851 41H120.851ZM109.65 41H94.6505C94.6505 49.2843 101.366 56 109.65 56V41ZM109.65 5.488H101.234V35.488H109.65V5.488ZM116.234 20.488V18.6H86.2345V20.488H116.234ZM101.234 33.6H129.299V3.6H101.234V33.6ZM114.299 18.6V20.488H144.299V18.6H114.299ZM129.299 5.488H120.851V35.488H129.299V5.488ZM105.851 20.488V41H135.851V20.488H105.851ZM120.851 26H109.65V56H120.851V26ZM124.65 41V20.488H94.6505V41H124.65ZM123.027 26.344V11.344C114.743 11.344 108.027 18.0597 108.027 26.344L123.027 26.344ZM137.587 26.344H152.587C152.587 18.0597 145.871 11.344 137.587 11.344V26.344ZM137.587 33.16V48.16C145.871 48.16 152.587 41.4443 152.587 33.16H137.587ZM123.027 33.16H108.027C108.027 41.4443 114.743 48.16 123.027 48.16V33.16ZM123.027 41.344H137.587V11.344H123.027V41.344ZM122.587 26.344V33.16H152.587V26.344H122.587ZM137.587 18.16H123.027V48.16H137.587V18.16ZM138.027 33.16V26.344H108.027V33.16H138.027ZM139.615 18.6V3.6C131.33 3.6 124.615 10.3157 124.615 18.6H139.615ZM150.047 18.6H165.047C165.047 10.3157 158.331 3.6 150.047 3.6V18.6ZM150.047 41V56C158.331 56 165.047 49.2843 165.047 41H150.047ZM139.615 41H124.615C124.615 49.2843 131.33 56 139.615 56V41ZM139.615 33.6H150.047V3.6H139.615V33.6ZM135.047 18.6V41H165.047V18.6H135.047ZM150.047 26H139.615V56H150.047V26ZM154.615 41V18.6H124.615V41H154.615ZM160.057 20.488H175.057C175.057 12.2037 168.341 5.488 160.057 5.488V20.488ZM151.641 20.488H136.641C136.641 28.7723 143.356 35.488 151.641 35.488V20.488ZM151.641 18.6V3.6C143.356 3.6 136.641 10.3157 136.641 18.6H151.641ZM179.705 18.6H194.705C194.705 10.3157 187.989 3.6 179.705 3.6V18.6ZM179.705 20.488V35.488C187.989 35.488 194.705 28.7723 194.705 20.488H179.705ZM171.257 20.488V5.488C162.972 5.488 156.257 12.2037 156.257 20.488H171.257ZM171.257 41V56C179.541 56 186.257 49.2843 186.257 41H171.257ZM160.057 41H145.057C145.057 49.2843 151.772 56 160.057 56V41ZM160.057 5.488H151.641V35.488H160.057V5.488ZM166.641 20.488V18.6H136.641V20.488H166.641ZM151.641 33.6H179.705V3.6H151.641V33.6ZM164.705 18.6V20.488H194.705V18.6H164.705ZM179.705 5.488H171.257V35.488H179.705V5.488ZM156.257 20.488V41H186.257V20.488H156.257ZM171.257 26H160.057V56H171.257V26ZM175.057 41V20.488H145.057V41H175.057Z" fill="#FF4370" mask="url(#path-1-outside-1_304_2042)"/>
</svg>
